<svg height="512pt" viewBox="0 -11 512.001 512" width="512pt" xmlns="http://www.w3.org/2000/svg"><path fill="#8A2BE2" d="m256 277.199219c-40.78125 0-73.960938 33.179687-73.960938 73.960937s33.179688 73.960938 73.960938 73.960938 73.960938-33.179688 73.960938-73.960938-33.179688-73.960937-73.960938-73.960937zm-27.5 120.671875v-93.421875l77.144531 46.710937zm0 0"/><path fill="#8A2BE2" d="m512 102.335938c-.023438-17.054688-8.714844-42.144532-49.933594-64.929688-28.53125-15.773438-67.875-27.796875-113.777344-34.769531l-17.253906-2.6250002v182.6289062c41.785156-4.648437 79.988282-13.1875 111.46875-25.144531 41.058594-15.597656 66.566406-35.960938 69.496094-55.160156zm0 0"/><path fill="#8A2BE2" d="m256 216.703125c-74.238281 0-144.257812-11.066406-197.15625-31.160156-24.441406-9.285157-44.191406-20.203125-58.84375-32.3125v229.257812c0 31.125 28.503906 59.09375 80.261719 78.753907 47.179687 17.921874 109.589843 27.789062 175.738281 27.789062s128.5625-9.867188 175.738281-27.789062c51.757813-19.660157 80.261719-47.628907 80.261719-78.753907v-229.257812c-14.652344 12.109375-34.402344 23.027343-58.84375 32.3125-52.898438 20.09375-122.917969 31.160156-197.15625 31.160156zm0 238.421875c-57.324219 0-103.960938-46.640625-103.960938-103.964844 0-57.328125 46.636719-103.964844 103.960938-103.964844 57.328125 0 103.964844 46.636719 103.964844 103.964844 0 57.324219-46.636719 103.964844-103.964844 103.964844zm0 0"/><path fill="#8A2BE2" d="m69.496094 157.496094c31.464844 11.949218 69.644531 20.488281 111.410156 25.136718v-182.632812l-17.253906 2.621094c-45.898438 6.96875-85.230469 18.996094-113.753906 34.777344-41.1875 22.789062-49.8750005 47.878906-49.898438 64.9375 2.933594 19.199218 28.4375 39.5625 69.496094 55.160156zm0 0"/></svg>